<?xml version="1.0" encoding="utf-8"?>
<!-- Generator: Adobe Illustrator 21.0.0, SVG Export Plug-In . SVG Version: 6.00 Build 0)  -->
<svg version="1.1"
	 id="svg2" xmlns:cc="http://creativecommons.org/ns#" xmlns:dc="http://purl.org/dc/elements/1.1/" xmlns:inkscape="http://www.inkscape.org/namespaces/inkscape" xmlns:rdf="http://www.w3.org/1999/02/22-rdf-syntax-ns#" xmlns:sodipodi="http://sodipodi.sourceforge.net/DTD/sodipodi-0.dtd" xmlns:svg="http://www.w3.org/2000/svg"
	 xmlns="http://www.w3.org/2000/svg" xmlns:xlink="http://www.w3.org/1999/xlink" x="0px" y="0px" viewBox="0 0 32 32"
	 style="enable-background:new 0 0 32 32;" xml:space="preserve">
<style type="text/css">
	.st0{fill:none;}
	.st1{fill:#596382;}
</style>
<g id="background">
	<rect class="st0" width="32" height="32"/>
</g>
<g id="group_x5F_full_x5F_edit">
	<path class="st1" d="M21.4,6.5c0.1,0,0.1,0.1,0.2,0.1C22,6.9,22.5,7,23,7c1.7,0,3-1.3,3-3s-1.3-3-3-3c-1.7,0-3,1.3-3,3
		C20,5.1,20.6,6,21.4,6.5z M7,19C7,17,7,9,7,9s0-0.4,0.2-1C5.2,8,3,8,3,8s-2,0-2,2v7c0,2,2,2,2,2v10h6v-8C9,21,7,21,7,19z M15,7
		c1.7,0,3-1.3,3-3s-1.3-3-3-3s-3,1.3-3,3S13.3,7,15,7z M7,7c0.5,0,1-0.1,1.4-0.4c0.1,0,0.1-0.1,0.2-0.1C9.4,6,10,5.1,10,4
		c0-1.7-1.3-3-3-3S4,2.3,4,4S5.3,7,7,7z M29,16.4c0-2.3,0-6.4,0-6.4s0-2-2-2h-4.2C23,8.6,23,9,23,9s0,1.9,0,4.1
		c-0.3,0-0.7-0.1-1-0.1s-0.7,0-1,0.1c0-1.6,0-3.1,0-3.1s0-2-2-2c-0.5,0-8,0-8,0s-2,0-2,2v7c0,2,2,2,2,2v10h5.4c1.5,1.2,3.5,2,5.6,2
		c5,0,9-4,9-9C31,19.9,30.2,17.9,29,16.4z M22,29c-3.9,0-7-3.1-7-7c0-3.9,3.1-7,7-7c3.9,0,7,3.1,7,7C29,25.9,25.9,29,22,29z"/>
	<polygon class="st1" points="21,26 18,26 18,23 	"/>
	<rect x="19.5" y="18.9" transform="matrix(0.7071 -0.7071 0.7071 0.7071 -8.1121 22.4142)" class="st1" width="7.1" height="4.2"/>
</g>
</svg>
